<?xml version="1.0" standalone="no"?>
<!DOCTYPE svg PUBLIC "-//W3C//DTD SVG 1.1//EN" "http://www.w3.org/Graphics/SVG/1.1/DTD/svg11.dtd" >
<svg xmlns="http://www.w3.org/2000/svg">
<metadata>Generated by IcoMoon</metadata>
<defs>
<font id="icomoon-24px" horiz-adv-x="1024">
<font-face units-per-em="1024" ascent="960" descent="-64" />
<missing-glyph horiz-adv-x="1024" />
<glyph unicode="&#x20;" horiz-adv-x="512" d="" />
<glyph unicode="&#xe900;" glyph-name="add-15Px-24" d="M480 669.75c0 17.673 14.327 32 32 32s32-14.327 32-32v-191.999h192c17.673 0 32-14.327 32-32s-14.327-32-32-32h-192v-192c0-17.673-14.327-32-32-32s-32 14.327-32 32v192h-192c-17.673 0-32 14.327-32 32s14.327 32 32 32h192v191.999zM85.333 832c0 23.564 19.103 42.667 42.667 42.667h768c23.565 0 42.667-19.103 42.667-42.667v-768c0-23.565-19.102-42.667-42.667-42.667h-768c-23.564 0-42.667 19.102-42.667 42.667v768zM149.333 85.333h725.333v725.333h-725.333v-725.333z" />
<glyph unicode="&#xe901;" glyph-name="add-1Px-24" d="M512 682.667c11.78 0 21.333-9.551 21.333-21.333v-192h192c11.78 0 21.333-9.553 21.333-21.333s-9.553-21.333-21.333-21.333h-192v-192c0-11.78-9.553-21.333-21.333-21.333s-21.333 9.553-21.333 21.333v192h-192c-11.782 0-21.333 9.553-21.333 21.333s9.551 21.333 21.333 21.333h192v192c0 11.782 9.553 21.333 21.333 21.333zM85.333 832c0 23.564 19.103 42.667 42.667 42.667h768c23.565 0 42.667-19.103 42.667-42.667v-768c0-23.565-19.102-42.667-42.667-42.667h-768c-23.564 0-42.667 19.102-42.667 42.667v768zM128 832v-768h768v768h-768z" />
<glyph unicode="&#xe902;" glyph-name="add-2Px-24" d="M170.667 106.667h682.667v682.667h-682.667v-682.667zM85.333 832c0 23.564 19.103 42.667 42.667 42.667h768c23.565 0 42.667-19.103 42.667-42.667v-768c0-23.565-19.102-42.667-42.667-42.667h-768c-23.564 0-42.667 19.102-42.667 42.667v768zM512 704c23.565 0 42.667-19.103 42.667-42.667v-170.667h170.667c23.565 0 42.667-19.102 42.667-42.667s-19.102-42.667-42.667-42.667h-170.667v-170.667c0-23.565-19.102-42.667-42.667-42.667s-42.667 19.102-42.667 42.667v170.667h-170.667c-23.564 0-42.667 19.102-42.667 42.667s19.103 42.667 42.667 42.667h170.667v170.667c0 23.564 19.102 42.667 42.667 42.667z" />
<glyph unicode="&#xe903;" glyph-name="export-1Px-24" d="M192 320c-35.346 0-64-28.651-64-64v-128.026c0-35.345 28.654-64 64-64h640c35.345 0 64 28.655 64 64v128.026c0 35.349-28.655 64-64 64h-106.206c-11.78 0-21.333 9.553-21.333 21.333 0 11.785 9.553 21.333 21.333 21.333h106.206c58.91 0 106.667-47.753 106.667-106.667v-128.026c0-58.91-47.757-106.667-106.667-106.667h-640c-58.91 0-106.667 47.757-106.667 106.667v128.026c0 58.914 47.756 106.667 106.667 106.667h106.209c11.782 0 21.333-9.549 21.333-21.333 0-11.78-9.551-21.333-21.333-21.333h-106.209zM810.667 192c0-11.78-9.553-21.333-21.333-21.333s-21.333 9.553-21.333 21.333c0 11.78 9.553 21.333 21.333 21.333s21.333-9.553 21.333-21.333zM512 874.669c6.153 0 12.002-2.656 16.055-7.285l213.333-243.81c7.757-8.867 6.861-22.345-2.005-30.103-8.87-7.759-22.345-6.86-30.106 2.007l-175.945 201.080v-519.224c0-11.78-9.553-21.333-21.333-21.333s-21.333 9.553-21.333 21.333v519.224l-175.945-201.080c-7.759-8.867-21.236-9.766-30.103-2.007s-9.766 21.236-2.007 30.103l213.333 243.81c4.053 4.63 9.903 7.285 16.055 7.285z" />
<glyph unicode="&#xe904;" glyph-name="exports-15Px-24" d="M213.375 277.333c-29.455 0-53.333-23.876-53.333-53.333v-85.333c0-29.457 23.878-53.333 53.333-53.333h597.334c29.453 0 53.333 23.876 53.333 53.333v85.333c0 29.457-23.881 53.333-53.333 53.333h-85.385c-17.677 0-32 14.327-32 32s14.323 32 32 32h85.385c64.802 0 117.333-52.531 117.333-117.333v-85.333c0-64.802-52.531-117.333-117.333-117.333h-597.334c-64.802 0-117.333 52.531-117.333 117.333v85.333c0 64.802 52.532 117.333 117.333 117.333h85.281c17.673 0 32-14.327 32-32s-14.327-32-32-32h-85.281zM810.658 181.333c0-17.673-14.327-32-32-32-17.677 0-32 14.327-32 32s14.323 32 32 32c17.673 0 32-14.327 32-32zM747.951 651.961c12.497-12.497 12.497-32.758 0-45.255s-32.759-12.497-45.257 0l-158.703 158.706v-476.925c0-17.673-14.327-32-32-32-17.677 0-32 14.327-32 32v476.925l-158.708-158.706c-12.497-12.497-32.758-12.497-45.255 0s-12.497 32.758 0 45.255l213.332 213.333c6.003 6.001 14.14 9.373 22.63 9.373 8.486 0 16.623-3.372 22.626-9.373l213.333-213.333z" />
<glyph unicode="&#xe905;" glyph-name="exports-2Px-24" d="M85.333 277.333c0 47.13 38.205 85.333 85.333 85.333h123.62c23.564 0 42.667-19.102 42.667-42.667s-19.103-42.667-42.667-42.667h-123.62v-170.667h682.667v170.667h-121.911c-23.565 0-42.667 19.102-42.667 42.667s19.102 42.667 42.667 42.667h121.911c47.13 0 85.333-38.204 85.333-85.333v-170.667c0-47.13-38.204-85.333-85.333-85.333h-682.667c-47.128 0-85.333 38.204-85.333 85.333v170.667zM512 874.667c12.096 0 23.625-5.134 31.714-14.124l192-213.333c15.765-17.515 14.345-44.493-3.17-60.256s-44.493-14.344-60.258 3.171l-117.619 130.688v-486.146c0-23.565-19.102-42.667-42.667-42.667s-42.667 19.102-42.667 42.667v486.146l-117.62-130.688c-15.763-17.515-42.741-18.935-60.256-3.171s-18.935 42.741-3.171 60.256l192 213.333c8.090 8.991 19.618 14.124 31.714 14.124z" />
<glyph unicode="&#xe906;" glyph-name="fiscal_report-15Px-24" d="M213.333 917.333c-47.128 0-85.333-38.205-85.333-85.333v-768c0-47.13 38.205-85.333 85.333-85.333h597.333c47.13 0 85.333 38.204 85.333 85.333v596.575c0 22.632-8.99 44.337-24.994 60.34l-171.426 171.424c-16 16.003-37.705 24.994-60.339 24.994h-425.907zM192 832c0 11.782 9.551 21.333 21.333 21.333h362.667v-170.667c0-47.128 38.204-85.333 85.333-85.333h170.667v-533.333c0-11.78-9.553-21.333-21.333-21.333h-597.333c-11.782 0-21.333 9.553-21.333 21.333v768zM640 682.667v170.653c5.385-0.191 10.505-2.413 14.327-6.235l171.426-171.424c3.819-3.822 6.042-8.944 6.234-14.327h-170.654c-11.78 0-21.333 9.551-21.333 21.333zM384 448c-17.673 0-32-14.327-32-32s14.327-32 32-32h256c17.673 0 32 14.327 32 32s-14.327 32-32 32h-256zM384 277.333c-17.673 0-32-14.327-32-32s14.327-32 32-32h256c17.673 0 32 14.327 32 32s-14.327 32-32 32h-256z" />
<glyph unicode="&#xe907;" glyph-name="fiscal_report-1Px-24" d="M192 832c-11.782 0-21.333-9.551-21.333-21.333v-767.876c0-11.78 9.551-21.333 21.333-21.333h597.333c11.78 0 21.333 9.553 21.333 21.333v576h-149.333c-35.345 0-64 28.654-64 64v149.21h-405.333zM640 801.851v-119.061c0-11.782 9.553-21.333 21.333-21.333h119.142l-140.476 140.394zM128 810.667c0 35.346 28.654 64 64 64h435.499l225.835-225.703v-606.173c0-35.345-28.655-64-64-64h-597.333c-35.346 0-64 28.655-64 64v767.876zM341.333 362.731c0 11.78 9.551 21.333 21.333 21.333h256c11.78 0 21.333-9.553 21.333-21.333 0-11.785-9.553-21.333-21.333-21.333h-256c-11.782 0-21.333 9.549-21.333 21.333zM341.333 192.064c0 11.78 9.551 21.333 21.333 21.333h256c11.78 0 21.333-9.553 21.333-21.333 0-11.785-9.553-21.333-21.333-21.333h-256c-11.782 0-21.333 9.549-21.333 21.333z" />
<glyph unicode="&#xe908;" glyph-name="fiscal_report-2Px-24" d="M213.333 917.271v-853.211h597.333v512.001h-170.667c-47.13 0-85.333 38.205-85.333 85.333v170.543h-341.333v85.333zM213.333 917.271h401.668l280.998-280.864v-572.347c0-47.125-38.204-85.333-85.333-85.333h-597.333c-47.128 0-85.333 38.208-85.333 85.333v767.878c0 47.128 38.205 85.333 85.333 85.333zM640 771.633v-110.239h110.293l-110.293 110.239zM341.333 405.333c0 23.565 19.103 42.667 42.667 42.667h256c23.565 0 42.667-19.102 42.667-42.667s-19.102-42.667-42.667-42.667h-256c-23.564 0-42.667 19.102-42.667 42.667zM341.333 234.667c0 23.565 19.103 42.667 42.667 42.667h256c23.565 0 42.667-19.102 42.667-42.667s-19.102-42.667-42.667-42.667h-256c-23.564 0-42.667 19.102-42.667 42.667z" />
<glyph unicode="&#xe909;" glyph-name="free-15Px-24" d="M174.080 767.6c0-34.578 11.426-66.488 30.709-92.16h-71.669c-39.588 0-71.68-32.092-71.68-71.68v-102.401c0-28.594 16.743-53.277 40.96-64.782v-344.818c0-39.588 32.092-71.68 71.68-71.68h675.84c39.588 0 71.68 32.092 71.68 71.68v344.818c24.216 11.506 40.96 36.188 40.96 64.782v102.401c0 39.588-32.092 71.68-71.68 71.68h-71.668c19.28 25.672 30.708 57.582 30.708 92.16 0 84.831-68.768 153.6-153.6 153.6-59.617 0-140.73-36.909-184.32-127.39-43.59 90.481-124.704 127.39-184.32 127.39-84.831 0-153.6-68.769-153.6-153.6zM480.055 675.44h-152.375c-50.899 0-92.16 41.261-92.16 92.16s41.261 92.16 92.16 92.16c47.078 0 140.62-41.251 152.375-184.32zM860.16 429.679v-337.92c0-5.652-4.583-10.24-10.24-10.24h-307.2v348.16h317.44zM481.28 81.519h-307.2c-5.655 0-10.24 4.588-10.24 10.24v337.92h317.44v-348.16zM890.88 491.119h-348.16v122.881h348.16c5.657 0 10.24-4.584 10.24-10.24v-102.401c0-5.652-4.583-10.24-10.24-10.24zM133.12 491.119c-5.655 0-10.24 4.588-10.24 10.24v102.401c0 5.656 4.585 10.24 10.24 10.24h348.16v-122.881h-348.16zM788.48 767.6c0-50.899-41.263-92.16-92.16-92.16h-152.375c11.756 143.069 105.296 184.32 152.375 184.32 50.897 0 92.16-41.261 92.16-92.16z" />
<glyph unicode="&#xe90a;" glyph-name="free-1Px-24" d="M149.292 576h341.379v-128h-341.379c-11.782 0-21.333 9.553-21.333 21.333v85.333c0 11.782 9.551 21.333 21.333 21.333zM533.338 576h341.38c11.785 0 21.333-9.551 21.333-21.333v-85.333c0-11.78-9.549-21.333-21.333-21.333h-341.38v128zM490.671 405.333v-341.385h-256.004c-11.782 0-21.333 9.553-21.333 21.333v320.051h277.338zM533.338 63.949v341.385h277.329v-320.051c0-11.78-9.553-21.333-21.333-21.333h-255.996zM853.333 405.333h21.385c35.349 0 64 28.655 64 64v85.333c0 35.346-28.651 64-64 64h-725.426c-35.346 0-64-28.654-64-64v-85.333c0-35.345 28.654-64 64-64h21.375v-320.051c0-35.345 28.654-64 64-64h554.667c35.345 0 64 28.655 64 64v320.051zM442.56 826.946c29.542-26.15 53.615-61.763 69.504-104.215 15.889 42.299 39.923 77.836 69.393 103.969 55.125 48.881 129.314 64.349 199.586 27.68 72.435-37.794 86.699-108.937 70.626-167.654-6.925-25.287-19.55-49.060-36.156-68.060h-84.425c15.561 0.074 31.915 7.609 46.647 22.079 14.763 14.5 26.654 34.875 32.781 57.247 12.13 44.323 1.22 92.247-49.212 118.562-52.587 27.44-107.891 16.931-151.539-21.777-41.097-36.441-71.77-98.277-75.793-176.111h-43.913c-4.011 78.127-34.697 139.965-75.781 176.331-43.622 38.612-98.929 49.017-151.557 21.556-50.432-26.314-61.342-74.238-49.208-118.562 6.124-22.372 18.018-42.747 32.779-57.247 14.731-14.47 31.085-22.005 46.648-22.079h-84.427c-16.605 19-29.23 42.773-36.152 68.060-16.074 58.717-1.809 129.861 70.623 167.654 70.235 36.648 144.42 21.386 199.574-27.435zM321.819 618.667h151.013c-0.119 0.002-0.239 0.003-0.354 0.003l-150.659-0.003zM551.198 618.667l0.358 0.003c-0.119 0-0.239-0.001-0.358-0.003z" />
<glyph unicode="&#xe90b;" glyph-name="free-2Px-24" d="M469.333 575.928v0.072h-192.055c1.458-0.050 2.924-0.076 4.398-0.076l187.657 0.004zM151.792 661.333c-7.134 12.85-12.734 26.315-16.611 39.764-9.524 33.037-10.489 70.41 2.694 106.075 13.409 36.274 40.369 67.757 81.214 89.642 88.495 47.416 176.455 5.065 233.668-47.045 23.002-20.952 43.136-45.080 59.243-69.673 16.107 24.593 36.241 48.72 59.247 69.673 57.212 52.11 145.169 94.461 233.664 47.045 40.845-21.885 67.806-53.368 81.216-89.642 13.18-35.665 12.215-73.038 2.692-106.075-3.878-13.449-9.476-26.914-16.61-39.764h-127.667c21.82 1.462 50.974 24.172 62.285 63.401 5.321 18.455 5.154 36.905-0.742 52.851-5.67 15.337-17.66 31.252-41.472 44.011-40.823 21.871-89.152 7.668-135.906-34.915-22.464-20.461-41.566-45.23-54.852-69.067-13.837-24.825-19.008-44.367-19.008-54.784 0-0.501-0.009-1-0.026-1.497h-85.641c-0.017 0.497-0.026 0.996-0.026 1.497 0 10.418-5.171 29.959-19.008 54.784-13.282 23.837-32.388 48.606-54.853 69.067-46.752 42.583-95.083 56.786-135.903 34.915-23.813-12.759-35.805-28.675-41.475-44.011-5.894-15.946-6.061-34.396-0.741-52.851 11.309-39.23 40.465-61.939 62.284-63.401h-127.667zM746.722 576c-1.459-0.050-2.923-0.076-4.399-0.076l-187.657 0.076h192.055zM42.667 576c0 47.128 38.205 85.333 85.333 85.333h768c47.13 0 85.333-38.205 85.333-85.333v-85.333c0-47.13-38.204-85.333-85.333-85.333v-341.333c0-47.13-38.204-85.333-85.333-85.333h-597.333c-47.128 0-85.333 38.204-85.333 85.333v341.333c-47.128 0-85.333 38.204-85.333 85.333v85.333zM213.333 405.333v-341.333h256v341.333h-256zM554.667 405.333v-341.333h256v341.333h-256zM554.667 490.667h341.333v85.333h-341.333v-85.333zM469.333 576h-341.333v-85.333h341.333v85.333z" />
<glyph unicode="&#xe90c;" glyph-name="refresh-15Px-24" d="M144.233 620.916c64.443 138.627 204.925 234.667 367.767 234.667 189.717 0 349.060-130.366 393.195-306.446 4.297-17.143 21.675-27.558 38.818-23.262s27.558 21.678 23.262 38.821c-51.098 203.873-235.511 354.887-455.275 354.887-172.904 0-323.913-93.49-405.333-232.601v72.601c0 17.673-14.327 32-32 32s-32-14.327-32-32v-160c0-23.564 19.103-42.667 42.667-42.667h160c17.673 0 32 14.327 32 32s-14.327 32-32 32h-101.101zM118.808 351.364c-4.297 17.143-21.677 27.554-38.819 23.258s-27.557-21.675-23.261-38.818c51.098-203.874 235.51-354.889 455.272-354.889 172.902 0 323.913 93.491 405.333 232.602v-72.602c0-17.673 14.327-32 32-32s32 14.327 32 32v160c0 23.565-19.102 42.667-42.667 42.667h-160c-17.673 0-32-14.327-32-32s14.327-32 32-32h101.103c-64.444-138.624-204.928-234.667-367.77-234.667-189.714 0-349.060 130.368-393.192 306.449z" />
<glyph unicode="&#xe90d;" glyph-name="refresh-1Px-24" d="M534.323 874.082c-89.98 4.716-179.143-19.175-254.71-68.249-64.343-41.784-116.015-100-149.879-168.299l104.923 28.114c11.381 3.049 23.078-3.704 26.128-15.085s-3.704-23.078-15.085-26.128l-151.891-40.699c-11.38-3.049-23.078 3.704-26.128 15.085l-40.699 151.891c-3.049 11.38 3.704 23.078 15.085 26.128s23.078-3.704 26.128-15.085l26.511-98.939c37.269 72.397 92.889 134.133 161.67 178.8 83.124 53.981 181.201 80.261 280.18 75.074s193.775-41.576 270.797-103.95c77.026-62.374 132.331-147.532 157.982-243.268 3.051-11.38-3.703-23.078-15.083-26.128-11.383-3.049-23.078 3.704-26.129 15.085-23.322 87.033-73.596 164.449-143.62 221.153-70.020 56.704-156.198 89.784-246.178 94.5zM489.702 21.918c89.98-4.715 179.145 19.174 254.711 68.25 70.255 45.623 125.406 110.839 158.763 187.383l-97.344-31.629c-11.209-3.644-23.241 2.487-26.884 13.696-3.639 11.204 2.492 23.241 13.7 26.88l149.551 48.593c11.204 3.639 23.241-2.492 26.88-13.696l48.593-149.555c3.644-11.204-2.492-23.241-13.696-26.88s-23.241 2.492-26.88 13.696l-33.83 104.111c-36.582-85.175-97.643-157.747-175.616-208.384-83.123-53.982-181.201-80.26-280.179-75.072s-193.772 41.574-270.798 103.949c-77.026 62.374-132.328 147.533-157.98 243.268-3.049 11.379 3.704 23.078 15.085 26.129 11.38 3.046 23.078-3.703 26.128-15.087 23.32-87.031 73.595-164.45 143.618-221.154 70.023-56.7 156.201-89.783 246.178-94.498z" />
<glyph unicode="&#xe90e;" glyph-name="refresh-2Px-24" d="M532.096 831.473c-80.981 4.244-161.228-17.258-229.239-61.424-51.8-33.64-94.477-79.113-124.719-132.329h64.485c23.564 0 42.667-19.103 42.667-42.667s-19.103-42.667-42.667-42.667h-157.249c-23.564 0-42.667 19.102-42.667 42.667v157.249c0 23.564 19.102 42.667 42.667 42.667s42.667-19.103 42.667-42.667v-34.394c34.284 48.77 77.752 90.855 128.34 123.707 83.124 53.981 181.203 80.261 280.181 75.074s193.771-41.576 270.797-103.95c77.026-62.374 132.326-147.532 157.982-243.268 6.097-22.761-7.411-46.157-30.17-52.254-22.763-6.101-46.157 7.407-52.258 30.168-20.988 78.33-66.236 148.004-129.254 199.038-63.023 51.033-140.582 80.806-221.564 85.050zM491.947 64.525c80.981-4.241 161.229 17.259 229.239 61.427 51.797 33.638 94.477 79.113 124.715 132.326h-64.482c-23.565 0-42.667 19.102-42.667 42.667s19.102 42.667 42.667 42.667h157.248c23.565 0 42.667-19.102 42.667-42.667v-157.248c0-23.565-19.102-42.667-42.667-42.667s-42.667 19.102-42.667 42.667v34.394c-34.283-48.768-77.751-90.854-128.341-123.708-83.123-53.982-181.201-80.26-280.179-75.072s-193.772 41.574-270.798 103.949c-77.026 62.374-132.328 147.533-157.98 243.268-6.099 22.763 7.409 46.157 30.17 52.254 22.761 6.101 46.157-7.407 52.256-30.17 20.988-78.327 66.235-148.002 129.257-199.036s140.58-80.806 221.563-85.052z" />
<glyph unicode="&#xe90f;" glyph-name="wellness-15Px-24" d="M544.034 842.667c0-17.673-14.323-32-32-32-17.673 0-32 14.327-32 32s14.327 32 32 32c17.677 0 32-14.327 32-32zM472.414 315.494c-86.029 106.82-217.899 175.172-365.732 175.172-8.918 0-17.779-0.247-26.575-0.738-21.45-1.199-37.473-19.75-35.58-41.152 21.19-239.582 222.401-427.443 467.49-427.443 245.086 0 446.298 187.861 467.49 427.443 1.89 21.402-14.131 39.953-35.58 41.152-8.798 0.491-17.66 0.738-26.577 0.738-147.836 0-279.706-68.352-365.734-175.172-10.769-13.372-20.817-27.349-30.093-41.869-4.39-6.874-14.626-6.874-19.017 0-9.276 14.519-19.324 28.497-30.093 41.869zM910.14 414.165c-35.767-187.281-200.418-328.832-398.123-328.832-197.707 0-362.356 141.551-398.127 328.832-1.24 6.49 3.863 12.407 10.467 12.122 141.794-6.080 264.786-84.983 332.424-200.538l18.411-31.45c16.478-28.151 57.169-28.151 73.647 0l18.411 31.45c67.639 115.554 190.63 194.458 332.425 200.538 6.605 0.286 11.708-5.632 10.466-12.122zM224.015 600.63c17.673 0 32 14.327 32 32s-14.327 32-32 32c-17.673 0-32-14.327-32-32s14.327-32 32-32zM832.017 632.63c0-17.673-14.327-32-32-32-17.677 0-32 14.327-32 32s14.323 32 32 32c17.673 0 32-14.327 32-32zM645.342 480.171c-18.876-11.217-44.386-0.030-49.583 21.303-13.611 55.881-39.343 109.631-77.495 157.188-3.209 4-9.263 4.004-12.471 0.008-37.79-47.016-63.718-100.859-77.47-157.264-5.199-21.321-30.699-32.486-49.567-21.274-10.706 6.362-16.756 18.65-13.957 30.784 18.681 80.989 58.947 157.661 120.113 220.672 14.963 15.415 39.458 15.389 54.379-0.066 6.118-6.338 12.1-12.883 17.929-19.634 51.635-59.823 85.508-128.954 102.084-200.959 2.795-12.126-3.26-24.405-13.961-30.758z" />
<glyph unicode="&#xe910;" glyph-name="wellness-1Px-24" d="M512.009 832c11.785 0 21.333 9.551 21.333 21.333s-9.549 21.333-21.333 21.333c-11.78 0-21.333-9.551-21.333-21.333s9.553-21.333 21.333-21.333zM213.344 640c0-11.782-9.551-21.333-21.333-21.333s-21.333 9.551-21.333 21.333c0 11.782 9.551 21.333 21.333 21.333s21.333-9.551 21.333-21.333zM853.342 640c0-11.782-9.549-21.333-21.333-21.333-11.78 0-21.333 9.551-21.333 21.333s9.553 21.333 21.333 21.333c11.785 0 21.333-9.551 21.333-21.333zM470.336 747.902c22.921 23.609 60.587 23.576 83.452-0.105 59.9-62.039 102.571-140 121.954-224.196 2.645-11.482-4.518-22.929-16-25.574-11.486-2.645-22.933 4.523-25.579 16.004-17.621 76.537-56.482 147.59-111.070 204.13-6.114 6.329-16.004 6.346-22.144 0.023-56.589-58.299-93.842-129.225-111.13-204.178-2.648-11.482-14.102-18.641-25.583-15.991s-18.641 14.101-15.993 25.583c18.985 82.305 59.918 160.255 122.092 224.305zM97.083 512.849c8.821 0.491 17.705 0.742 26.645 0.742 148.343 0 280.676-68.617 366.959-175.757 7.458-9.259 14.571-18.807 21.321-28.625 6.754 9.818 13.867 19.366 21.325 28.625 86.285 107.14 218.615 175.757 366.959 175.757 8.943 0 17.826-0.252 26.65-0.742 32.606-1.822 57.015-30.118 54.144-62.596-21.265-240.418-223.142-428.919-469.073-428.919s-447.811 188.501-469.075 428.919c-2.873 32.478 21.536 60.774 54.145 62.596zM123.729 470.925c-8.146 0-16.238-0.226-24.268-0.674-8.488-0.474-14.776-7.723-14.022-16.239 19.334-218.594 202.947-390.012 426.574-390.012 223.625 0 407.236 171.418 426.573 390.012 0.751 8.516-5.534 15.765-14.025 16.239-8.030 0.448-16.119 0.674-24.269 0.674-134.886 0-255.198-62.336-333.73-159.851-9.83-12.207-18.999-24.96-27.465-38.208-12.591-19.721-41.583-19.721-54.174-0.004-8.465 13.252-17.634 26.005-27.465 38.212-78.534 97.515-198.845 159.851-333.731 159.851z" />
<glyph unicode="&#xe911;" glyph-name="wellness-2Px-24" d="M512 789.333c23.565 0 42.667 19.103 42.667 42.667s-19.102 42.667-42.667 42.667c-23.565 0-42.667-19.103-42.667-42.667s19.102-42.667 42.667-42.667zM341.333 704c0-23.564-19.103-42.667-42.667-42.667s-42.667 19.103-42.667 42.667c0 23.564 19.102 42.667 42.667 42.667s42.667-19.103 42.667-42.667zM768 704c0-23.564-19.102-42.667-42.667-42.667s-42.667 19.103-42.667 42.667c0 23.564 19.102 42.667 42.667 42.667s42.667-19.103 42.667-42.667zM455.415 685.51c31.1 32.038 82.317 31.997 113.348-0.145 59.392-61.513 102.366-138.213 123.354-221.296 47.462 18.142 98.987 28.092 152.828 28.092 8.119 0 16.192-0.23 24.209-0.674 41.737-2.33 73.020-38.622 69.346-80.158-19.337-218.611-202.867-389.995-426.479-389.995-223.61 0-407.143 171.383-426.478 389.995-3.674 41.536 27.607 77.828 69.347 80.158 8.016 0.444 16.087 0.674 24.205 0.674 53.83 0 105.343-9.946 152.799-28.079 20.504 81.209 61.897 157.945 123.521 221.429zM611.341 435.051c-15.974 69.385-50.65 134.039-99.332 186.165-50.355-53.609-83.648-118.112-99.35-186.195-0.804-3.486-2.015-6.775-3.57-9.826 39.1-24.947 73.873-56.060 102.933-91.951 29.056 35.887 63.817 66.991 102.908 91.938-1.562 3.063-2.782 6.366-3.588 9.869zM171.831 406.75c21.015-169.148 165.335-300.083 340.191-300.083s319.177 130.935 340.19 300.083c-2.415 0.051-4.838 0.077-7.266 0.077-107.968 0-204.258-49.86-267.166-127.979-7.872-9.771-15.215-19.985-21.99-30.592-20.382-31.91-67.153-31.91-87.535 0-6.775 10.607-14.123 20.821-21.99 30.592-62.91 78.118-159.201 127.979-267.168 127.979-2.428 0-4.85-0.026-7.265-0.077z" />
<glyph unicode="&#xe912;" glyph-name="window-15Px-24" d="M469.333 874.667h85.333c159.057 0 288-128.942 288-288v-501.333h63.996c17.673 0 32-14.327 32-32s-14.327-32-32-32h-789.329c-17.673 0-32 14.327-32 32s14.327 32 32 32h64v501.333c0 159.058 128.942 288 288 288zM245.333 85.333h234.667v298.667h-234.667v-298.667zM544 85.333h234.667v298.667h-234.667v-298.667zM544 448h234.667v138.667c0 123.712-100.288 224-224 224h-10.667v-362.667zM480 810.667h-10.667c-123.712 0-224-100.288-224-224v-138.667h234.667v362.667z" />
<glyph unicode="&#xe913;" glyph-name="window-1Px-24" d="M192 530.675c0 176.733 143.269 320.002 320 320.002s320-143.269 320-320.002v-424.009h42.667c11.78 0 21.333-9.553 21.333-21.333s-9.553-21.333-21.333-21.333h-725.333c-11.782 0-21.333 9.553-21.333 21.333s9.551 21.333 21.333 21.333h42.667v424.009zM789.333 405.333h-256v-298.667h256v298.667zM789.333 448v82.675c0 145.991-112.802 265.634-256 276.527v-359.202h256zM490.667 448v359.202c-143.199-10.893-256-130.536-256-276.527v-82.675h256zM234.667 405.333v-298.667h256v298.667h-256z" />
<glyph unicode="&#xe914;" glyph-name="window-2Px-24" d="M511.996 874.667c-188.512 0-341.332-152.82-341.332-341.333v-424.009h-53.331c-17.673 0-32-19.106-32-42.667 0-23.565 14.327-42.667 32-42.667h53.331v-2.658h682.665v2.658h53.333c17.673 0 32 19.102 32 42.667 0 23.561-14.327 42.667-32 42.667h-53.333v424.009c0 188.513-152.819 341.333-341.333 341.333zM554.667 109.325v253.342h213.21v85.333h-213.21v337.793c121.075-20.314 213.329-125.613 213.329-252.46v-424.009h-213.329zM469.333 109.325h-213.336v424.009c0 126.849 92.259 232.149 213.336 252.461v-337.794h-213.333v-85.333h213.333v-253.342z" />
</font>
</defs>
</svg>
